<?xml version="1.0" encoding="UTF-8" standalone="no"?>
<!-- Created with Inkscape (http://www.inkscape.org/) -->

<svg
   width="265.06647mm"
   height="35.29998mm"
   viewBox="0 0 265.06647 35.29998"
   version="1.1"
   id="svg5"
   inkscape:version="1.1.2 (0a00cf5339, 2022-02-04)"
   sodipodi:docname="alephs website.svg"
   xmlns:inkscape="http://www.inkscape.org/namespaces/inkscape"
   xmlns:sodipodi="http://sodipodi.sourceforge.net/DTD/sodipodi-0.dtd"
   xmlns="http://www.w3.org/2000/svg"
   xmlns:svg="http://www.w3.org/2000/svg">
  <sodipodi:namedview
     id="namedview7"
     pagecolor="#ffffff"
     bordercolor="#666666"
     borderopacity="1.0"
     inkscape:pageshadow="2"
     inkscape:pageopacity="0.0"
     inkscape:pagecheckerboard="0"
     inkscape:document-units="mm"
     showgrid="false"
     inkscape:zoom="0.64052329"
     inkscape:cx="500.37213"
     inkscape:cy="67.13261"
     inkscape:window-width="1680"
     inkscape:window-height="981"
     inkscape:window-x="0"
     inkscape:window-y="0"
     inkscape:window-maximized="1"
     inkscape:current-layer="layer1"
     fit-margin-top="0"
     fit-margin-left="0"
     fit-margin-right="0"
     fit-margin-bottom="0" />
  <defs
     id="defs2" />
  <g
     inkscape:label="Layer 1"
     inkscape:groupmode="layer"
     id="layer1"
     transform="translate(27.40597,-130.64347)">
    <path
       d="m -9.2006991,158.96278 c -0.5949435,-1.11056 -0.6742693,-2.65741 -0.6742693,-4.64056 v -10.471 c 0,-5.59247 -3.4903346,-6.90135 -8.4878606,-6.90135 -3.252357,0 -8.21022,1.0709 -8.21022,7.21865 h 6.187412 c 0.03966,-2.26078 0.67427,-2.85573 2.022808,-2.85573 1.22955,0 1.824494,0.67427 1.824494,1.98315 0,1.30887 -0.555281,1.98314 -2.102134,2.34011 l -2.816066,0.67427 c -4.561233,1.0709 -5.949435,2.93505 -5.949435,6.90134 0,3.68865 1.665842,6.3064 5.949435,6.3064 2.141797,0 4.045616,-1.07089 4.838874,-2.97471 h 0.07933 c 0.118988,0.87258 0.198314,1.66584 0.436292,2.41943 z m -9.5587589,-4.24393 c -1.070898,0 -1.745167,-0.91224 -1.745167,-2.34011 0,-1.42786 0.356966,-2.26078 1.467527,-2.7764 1.031235,-0.47596 2.022808,-0.43629 2.419437,-0.99157 h 0.07933 v 2.57809 c 0,2.34011 -0.634607,3.52999 -2.221123,3.52999 z"
       style="font-weight:900;font-stretch:condensed;font-size:39.6629px;line-height:1.25;font-family:'Helvetica Neue LT Std';-inkscape-font-specification:'Helvetica Neue LT Std Heavy Condensed';stroke-width:0.264583"
       id="path3814" />
    <path
       d="M -6.583024,158.96278 H 0.55629779 V 130.64347 H -6.583024 Z"
       style="font-weight:900;font-stretch:condensed;font-size:39.6629px;line-height:1.25;font-family:'Helvetica Neue LT Std';-inkscape-font-specification:'Helvetica Neue LT Std Heavy Condensed';stroke-width:0.264583"
       id="path3816" />
    <path
       d="m 20.6257,149.44369 v -2.18146 c 0,-7.77393 -2.895391,-10.31236 -8.606849,-10.31236 -6.4253894,0 -9.1224665,3.09371 -9.1224665,11.30393 0,8.17056 2.2211224,11.26426 9.1224665,11.26426 2.974718,0 5.037188,-0.71393 6.385727,-2.10213 1.348539,-1.3882 1.983145,-3.41101 2.022808,-5.9891 h -6.42539 c 0,2.93506 -0.753595,3.72832 -2.022808,3.72832 -0.991572,0 -1.943482,-0.59495 -1.943482,-2.8954 v -2.81606 z m -6.663367,-3.88697 h -3.926627 v -0.95191 c 0,-2.26078 0.475955,-3.29202 1.943482,-3.29202 1.507191,0 1.983145,1.03124 1.983145,3.29202 z"
       style="font-weight:900;font-stretch:condensed;font-size:39.6629px;line-height:1.25;font-family:'Helvetica Neue LT Std';-inkscape-font-specification:'Helvetica Neue LT Std Heavy Condensed';stroke-width:0.264583"
       id="path3818" />
    <path
       d="m 22.727796,165.94345 h 7.139321 v -9.4001 h 0.07933 c 0.713932,2.18146 2.4591,2.97471 4.481908,2.97471 3.96629,0 6.584041,-2.61775 6.584041,-10.82797 0,-7.93258 -1.626179,-11.74022 -6.42539,-11.74022 -2.340111,0 -4.005952,1.11057 -4.878536,3.49034 h -0.07933 v -2.93505 h -6.901344 z m 7.139321,-17.72931 c 0,-4.6009 0.356967,-5.94944 1.983145,-5.94944 1.665842,0 2.022808,1.34854 2.022808,5.94944 0,4.64056 -0.356966,5.9891 -2.022808,5.9891 -1.626178,0 -1.983145,-1.34854 -1.983145,-5.9891 z"
       style="font-weight:900;font-stretch:condensed;font-size:39.6629px;line-height:1.25;font-family:'Helvetica Neue LT Std';-inkscape-font-specification:'Helvetica Neue LT Std Heavy Condensed';stroke-width:0.264583"
       id="path3820" />
    <path
       d="m 43.233452,158.96278 h 7.139322 v -14.15965 c 0,-1.78483 0.475955,-2.53843 1.745168,-2.53843 1.269212,0 1.745167,0.7536 1.745167,2.53843 v 14.15965 h 7.139322 v -16.18246 c 0,-4.48191 -2.657414,-5.83045 -5.592469,-5.83045 -1.745167,0 -3.767975,0.67427 -4.957862,2.93506 h -0.07933 v -9.24146 h -7.139322 z"
       style="font-weight:900;font-stretch:condensed;font-size:39.6629px;line-height:1.25;font-family:'Helvetica Neue LT Std';-inkscape-font-specification:'Helvetica Neue LT Std Heavy Condensed';stroke-width:0.264583"
       id="path3822" />
    <path
       d="m 64.810011,145.4774 h 5.552806 v -14.83393 h -5.552806 z"
       style="font-weight:900;font-stretch:condensed;font-size:39.6629px;line-height:1.25;font-family:'Helvetica Neue LT Std';-inkscape-font-specification:'Helvetica Neue LT Std Heavy Condensed';stroke-width:0.264583"
       id="path3824" />
    <path
       d="m 73.4168,152.29942 c 0,4.68022 2.419437,7.21864 8.408535,7.21864 5.394154,0 8.606849,-3.01438 8.606849,-7.17898 0,-8.21022 -10.352017,-5.83045 -10.352017,-9.36044 0,-1.03124 0.753595,-1.66585 1.824493,-1.66585 1.189887,0 1.90382,0.55528 1.90382,2.37978 h 6.187412 c 0,-4.48191 -2.697077,-6.7427 -8.051569,-6.7427 -5.790783,0 -8.527523,2.93506 -8.527523,6.70303 0,8.1309 10.352017,5.87011 10.352017,9.67775 0,1.15023 -0.95191,1.8245 -2.062471,1.8245 -0.634606,0 -1.150224,-0.27764 -1.50719,-0.7536 -0.356966,-0.47595 -0.515618,-1.26921 -0.515618,-2.10213 z"
       style="font-weight:900;font-stretch:condensed;font-size:39.6629px;line-height:1.25;font-family:'Helvetica Neue LT Std';-inkscape-font-specification:'Helvetica Neue LT Std Heavy Condensed';stroke-width:0.264583"
       id="path3826" />
    <path
       d="m 105.78163,158.96278 h 8.09123 l 2.18146,-15.19089 h 0.0793 l 2.18146,15.19089 h 8.09124 l 4.36291,-21.45762 h -6.90134 l -1.78483,15.42886 h -0.0793 l -2.10213,-15.42886 h -7.61528 l -2.10213,15.42886 h -0.0793 l -1.78483,-15.42886 h -6.90134 z"
       style="font-weight:900;font-stretch:condensed;font-size:39.6629px;line-height:1.25;font-family:'Helvetica Neue LT Std';-inkscape-font-specification:'Helvetica Neue LT Std Heavy Condensed';stroke-width:0.264583"
       id="path3828" />
    <path
       d="m 149.29182,149.44369 v -2.18146 c 0,-7.77393 -2.89539,-10.31236 -8.60685,-10.31236 -6.42539,0 -9.12246,3.09371 -9.12246,11.30393 0,8.17056 2.22112,11.26426 9.12246,11.26426 2.97472,0 5.03719,-0.71393 6.38573,-2.10213 1.34854,-1.3882 1.98315,-3.41101 2.02281,-5.9891 h -6.42539 c 0,2.93506 -0.7536,3.72832 -2.02281,3.72832 -0.99157,0 -1.94348,-0.59495 -1.94348,-2.8954 v -2.81606 z m -6.66336,-3.88697 h -3.92663 v -0.95191 c 0,-2.26078 0.47595,-3.29202 1.94348,-3.29202 1.50719,0 1.98315,1.03124 1.98315,3.29202 z"
       style="font-weight:900;font-stretch:condensed;font-size:39.6629px;line-height:1.25;font-family:'Helvetica Neue LT Std';-inkscape-font-specification:'Helvetica Neue LT Std Heavy Condensed';stroke-width:0.264583"
       id="path3830" />
    <path
       d="m 151.39391,158.96278 h 6.90134 v -2.93505 h 0.0793 c 0.87258,2.37977 2.34011,3.49033 4.87853,3.49033 4.79921,0 6.42539,-3.80763 6.42539,-11.74021 0,-8.28955 -2.4591,-10.82798 -6.58404,-10.82798 -2.02281,0 -3.76797,0.79326 -4.48191,2.97472 h -0.0793 v -9.28112 h -7.13932 z m 7.13932,-10.70898 c 0,-4.64056 0.35696,-5.9891 1.98314,-5.9891 1.66585,0 2.02281,1.34854 2.02281,5.9891 0,4.6009 -0.35696,5.94944 -2.02281,5.94944 -1.62618,0 -1.98314,-1.34854 -1.98314,-5.94944 z"
       style="font-weight:900;font-stretch:condensed;font-size:39.6629px;line-height:1.25;font-family:'Helvetica Neue LT Std';-inkscape-font-specification:'Helvetica Neue LT Std Heavy Condensed';stroke-width:0.264583"
       id="path3832" />
    <path
       d="m 171.14597,152.29942 c 0,4.68022 2.41944,7.21864 8.40854,7.21864 5.39415,0 8.60685,-3.01438 8.60685,-7.17898 0,-8.21022 -10.35202,-5.83045 -10.35202,-9.36044 0,-1.03124 0.75359,-1.66585 1.82449,-1.66585 1.18989,0 1.90382,0.55528 1.90382,2.37978 h 6.18741 c 0,-4.48191 -2.69707,-6.7427 -8.05156,-6.7427 -5.79079,0 -8.52753,2.93506 -8.52753,6.70303 0,8.1309 10.35202,5.87011 10.35202,9.67775 0,1.15023 -0.95191,1.8245 -2.06247,1.8245 -0.63461,0 -1.15023,-0.27764 -1.50719,-0.7536 -0.35697,-0.47595 -0.51562,-1.26921 -0.51562,-2.10213 z"
       style="font-weight:900;font-stretch:condensed;font-size:39.6629px;line-height:1.25;font-family:'Helvetica Neue LT Std';-inkscape-font-specification:'Helvetica Neue LT Std Heavy Condensed';stroke-width:0.264583"
       id="path3834" />
    <path
       d="m 190.38246,158.96278 h 7.13932 v -21.45762 h -7.13932 z m 0,-23.00448 h 7.13932 v -5.31483 h -7.13932 z"
       style="font-weight:900;font-stretch:condensed;font-size:39.6629px;line-height:1.25;font-family:'Helvetica Neue LT Std';-inkscape-font-specification:'Helvetica Neue LT Std Heavy Condensed';stroke-width:0.264583"
       id="path3836" />
    <path
       d="m 199.14794,142.30437 h 2.37977 v 11.42291 c 0,4.75955 1.70551,5.47348 6.06842,5.47348 1.18989,0 2.57809,-0.0793 3.88697,-0.23798 v -4.75954 h -1.11056 c -1.15023,0 -1.70551,-0.4363 -1.70551,-1.66585 v -10.23302 h 2.81607 v -4.79921 h -2.81607 v -6.30641 h -7.13932 v 6.30641 h -2.37977 z"
       style="font-weight:900;font-stretch:condensed;font-size:39.6629px;line-height:1.25;font-family:'Helvetica Neue LT Std';-inkscape-font-specification:'Helvetica Neue LT Std Heavy Condensed';stroke-width:0.264583"
       id="path3838" />
    <path
       d="m 230.08494,149.44369 v -2.18146 c 0,-7.77393 -2.89539,-10.31236 -8.60684,-10.31236 -6.42539,0 -9.12247,3.09371 -9.12247,11.30393 0,8.17056 2.22112,11.26426 9.12247,11.26426 2.97471,0 5.03718,-0.71393 6.38572,-2.10213 1.34854,-1.3882 1.98315,-3.41101 2.02281,-5.9891 h -6.42539 c 0,2.93506 -0.7536,3.72832 -2.02281,3.72832 -0.99157,0 -1.94348,-0.59495 -1.94348,-2.8954 v -2.81606 z m -6.66336,-3.88697 h -3.92663 v -0.95191 c 0,-2.26078 0.47595,-3.29202 1.94348,-3.29202 1.50719,0 1.98315,1.03124 1.98315,3.29202 z"
       style="font-weight:900;font-stretch:condensed;font-size:39.6629px;line-height:1.25;font-family:'Helvetica Neue LT Std';-inkscape-font-specification:'Helvetica Neue LT Std Heavy Condensed';stroke-width:0.264583"
       id="path3840" />
    <path
       d="m 230.99712,158.96278 h 6.66337 v -7.85325 h -6.66337 z"
       style="font-weight:900;font-stretch:condensed;font-size:39.6629px;line-height:1.25;font-family:'Helvetica Neue LT Std';-inkscape-font-specification:'Helvetica Neue LT Std Heavy Condensed';stroke-width:0.264583"
       id="path3842" />
  </g>
</svg>
