<?xml version="1.0" encoding="UTF-8" standalone="no"?><!-- Generator: Gravit.io --><svg xmlns="http://www.w3.org/2000/svg" xmlns:xlink="http://www.w3.org/1999/xlink" style="isolation:isolate" viewBox="454 255.5 268 268.5" width="268pt" height="268.5pt"><g><path d=" M 454 389.5 C 454 315.543 514.043 255.5 588 255.5 C 661.957 255.5 722 315.543 722 389.5 C 722 463.457 661.957 523.5 588 523.5 C 563.737 523.5 540.972 517.038 521.333 505.742 L 588 389.5 L 454 389.5 Z " fill="rgb(255,255,255)"/><path d=" M 454 390 C 454 316.043 514.043 256 588 256 C 661.957 256 722 316.043 722 390 C 722 463.957 661.957 524 588 524 C 563.737 524 540.972 517.538 521.333 506.242 L 588 390 L 454 390 Z  M 464.4 380 C 465.45 366.83 468.61 353.92 473.75 341.75 C 479.99 327.03 489.02 313.64 500.34 302.34 C 511.64 291.02 525.03 281.99 539.76 275.75 C 555.02 269.3 571.43 265.99 588 266 C 604.57 265.99 620.98 269.3 636.24 275.75 C 650.97 281.99 664.36 291.02 675.66 302.34 C 686.98 313.64 696.01 327.03 702.25 341.76 C 708.7 357.02 712.01 373.43 712 390 C 712.01 406.57 708.7 422.98 702.25 438.24 C 696.01 452.97 686.98 466.36 675.66 477.66 C 664.36 488.98 650.97 498.01 636.24 504.25 C 620.98 510.7 604.57 514.01 588 514 C 577.04 514.01 566.13 512.56 555.54 509.7 C 548.55 507.81 541.73 505.3 535.18 502.2 L 605.26 380 L 464.4 380 Z " fill-rule="evenodd" fill="rgb(0,0,0)"/><circle vector-effect="non-scaling-stroke" cx="524.6665436480299" cy="354.99999999999994" r="13" fill="rgb(0,0,0)"/><circle vector-effect="non-scaling-stroke" cx="651.33345635197" cy="354.99999999999994" r="13" fill="rgb(0,0,0)"/></g></svg>