<?xml version="1.0" encoding="UTF-8" standalone="no"?><!-- Generator: Gravit.io --><svg xmlns="http://www.w3.org/2000/svg" xmlns:xlink="http://www.w3.org/1999/xlink" style="isolation:isolate" viewBox="0 0 308.072 502.99" width="308.072pt" height="502.99pt"><g><path d=" M 107.569 338.848 C 104.704 341.713 102.105 344.912 99.838 348.577 C 98.972 349.977 98.439 351.51 98.106 353.242 C 96.04 365.704 94.574 378.299 93.574 391.16 C 93.175 396.692 95.641 399.557 100.905 399.891 C 101.371 399.957 101.838 399.957 102.305 399.957 C 100.772 412.552 100.172 425.347 100.438 438.342 C 100.505 440.074 101.171 441.341 102.437 442.14 C 120.563 453.403 137.091 451.603 151.951 436.609 C 154.817 433.744 156.949 430.411 158.283 426.68 C 162.813 414.285 159.081 406.754 147.153 404.088 C 147.22 402.29 147.153 400.49 146.82 398.758 C 146.62 397.492 146.153 396.558 145.42 395.892 C 146.02 394.693 146.42 393.426 146.62 392.027 C 148.285 381.431 149.219 370.636 149.485 359.573 C 149.885 341.78 141.289 331.784 123.629 329.452 C 117.565 331.118 112.234 334.25 107.569 338.848 L 107.569 338.848 Z  M 124.829 342.646 L 131.626 345.445 C 136.491 358.706 137.091 372.635 133.292 387.295 L 107.635 387.629 L 110.301 357.508 L 124.829 342.646 Z  M 145.487 419.816 C 146.753 422.548 144.355 426.413 138.357 431.411 C 131.159 437.342 122.963 438.275 113.833 434.276 L 115.099 402.69 L 132.625 400.957 L 136.424 420.549 L 145.487 419.816" fill="rgb(0,0,0)"/><path d=" M 131.626 345.445 L 124.829 342.646 L 110.301 357.508 L 107.635 387.629 L 133.292 387.295 C 137.091 372.635 136.491 358.706 131.626 345.445 Z " fill="rgb(82,71,115)"/><path d=" M 138.357 431.411 C 144.355 426.413 146.753 422.548 145.487 419.816 L 136.424 420.549 L 132.625 400.957 L 115.099 402.69 L 113.833 434.276 C 122.963 438.275 131.159 437.342 138.357 431.411 Z " fill="rgb(248,201,103)"/><path d=" M 214.927 428.079 C 216.125 423.348 216.259 418.549 215.26 413.685 C 212.127 398.158 203.197 386.962 188.603 380.232 C 169.544 371.502 150.752 370.769 132.292 378.033 C 127.827 379.765 125.095 383.031 123.962 387.762 C 119.631 396.358 117.498 405.355 117.565 414.618 C 117.632 423.081 118.298 431.611 119.497 440.074 C 120.763 449.204 123.629 457.867 128.094 466.064 C 132.492 474.128 139.823 477.259 150.019 475.594 C 154.884 474.86 158.149 472.328 159.748 467.996 L 162.747 473.461 C 176.741 476.793 190.403 475.86 203.731 470.662 C 209.861 459.133 213.327 446.605 214.127 433.144 C 214.193 431.478 214.46 429.745 214.927 428.079 L 214.927 428.079 Z  M 157.616 437.209 C 157.349 437.075 157.083 437.009 156.816 437.009 L 147.353 460.466 L 137.557 460.799 L 130.226 423.614 L 133.692 404.555 L 139.023 387.895 C 150.485 385.03 162.347 385.296 174.609 388.695 C 179.273 390.028 183.605 392.027 187.537 394.693 C 192.735 398.091 197.067 402.29 200.532 407.421 L 196.4 458.134 L 172.943 463.065 C 170.744 455.868 167.812 449.004 164.147 442.473 C 162.613 439.741 160.481 438.008 157.616 437.209" fill="rgb(0,0,0)"/><path d=" M 156.816 437.009 C 157.083 437.009 157.349 437.075 157.616 437.209 C 160.481 438.008 162.613 439.741 164.147 442.473 C 167.812 449.004 170.744 455.868 172.943 463.065 L 196.4 458.134 L 200.532 407.421 C 197.067 402.29 192.735 398.091 187.537 394.693 C 183.605 392.027 179.273 390.028 174.609 388.695 C 162.347 385.296 150.485 385.03 139.023 387.895 L 133.692 404.555 L 130.226 423.614 L 137.557 460.799 L 147.353 460.466 L 156.816 437.009" fill="rgb(79,113,108)"/><path d=" M 192.468 313.925 C 186.604 314.258 180.807 315.19 175.009 316.79 C 169.211 318.389 163.347 319.456 157.483 319.989 C 146.953 320.989 138.157 324.853 131.159 331.517 C 130.16 332.384 129.427 333.384 128.96 334.45 C 119.431 353.442 115.565 374.034 117.432 396.092 C 118.031 403.222 121.163 409.154 126.828 413.818 C 134.957 420.549 144.155 425.28 154.351 427.879 C 163.08 430.145 172.009 430.211 181.14 428.146 C 191.336 425.747 201.331 422.481 210.995 418.35 C 215.26 416.55 218.657 413.685 221.124 409.82 C 227.588 399.891 230.587 388.628 230.12 376.1 C 229.653 363.505 228.255 351.044 225.921 338.781 C 225.121 334.717 223.323 331.052 220.591 327.853 C 212.993 319.056 203.597 314.39 192.468 313.925 Z  M 193.001 327.12 C 195.067 327.186 197.2 327.32 199.332 327.453 C 200.532 328.386 201.797 329.252 203.131 329.985 C 206.529 331.85 209.328 334.25 211.395 337.182 C 214.927 352.709 216.392 368.502 215.859 384.63 C 215.792 386.429 215.792 388.229 215.792 390.028 C 215.859 398.024 212.26 403.822 205.129 407.487 C 186.871 416.817 167.879 418.616 148.152 412.952 C 137.824 409.953 132.227 403.689 131.426 394.093 C 129.893 376.633 131.826 359.84 137.224 343.713 C 138.823 343.313 140.089 342.446 141.023 341.114 C 141.621 340.248 142.021 339.248 142.288 338.181 C 142.621 338.114 142.955 337.981 143.288 337.914 C 159.815 333.984 176.408 330.385 193.001 327.12 Z " fill="rgb(0,0,0)"/><path d=" M 199.332 327.453 C 197.2 327.32 195.067 327.186 193.001 327.12 C 176.408 330.385 159.815 333.984 143.288 337.914 C 142.955 337.981 142.621 338.114 142.288 338.181 C 142.021 339.248 141.621 340.248 141.023 341.114 C 140.089 342.446 138.823 343.313 137.224 343.713 C 131.826 359.84 129.893 376.633 131.426 394.093 C 132.227 403.689 137.824 409.953 148.152 412.952 C 167.879 418.616 186.871 416.817 205.131 407.487 C 212.26 403.822 215.859 398.024 215.792 390.028 C 215.792 388.229 215.792 386.429 215.859 384.63 C 216.392 368.502 214.927 352.709 211.395 337.182 C 209.328 334.25 206.529 331.85 203.131 329.985 C 201.797 329.252 200.532 328.386 199.332 327.453 Z " fill="rgb(82,71,115)"/><path d=" M 220.457 190.241 C 219.591 188.841 218.524 187.442 217.325 186.109 C 207.129 175.113 194.468 169.449 179.273 169.049 C 163.013 168.649 146.753 168.45 130.56 168.517 C 107.236 178.178 90.376 194.705 79.914 218.096 C 73.516 232.357 70.184 247.152 69.917 262.412 C 69.85 267.144 70.184 271.808 70.85 276.406 C 72.383 286.736 75.448 296.398 80.18 305.461 C 81.046 305.062 82.046 304.729 83.112 304.462 C 96.107 301.064 108.968 297.798 121.763 294.666 C 136.691 294.798 150.285 299.33 162.613 308.26 C 165.745 310.593 168.279 313.458 170.144 316.924 C 173.143 322.721 173.943 328.985 172.543 335.716 C 172.209 337.116 171.876 338.448 171.543 339.781 C 178.94 338.914 186.271 337.716 193.668 336.049 C 200.265 334.584 206.596 332.517 212.66 329.918 C 232.452 321.389 244.048 306.928 247.38 286.602 C 249.179 275.74 249.312 264.812 247.647 253.749 C 246.78 247.95 245.248 242.286 243.181 236.689 C 236.984 220.429 229.453 204.968 220.457 190.241" fill="rgb(248,201,103)"/><path d=" M 217.325 186.109 C 218.524 187.442 219.591 188.841 220.457 190.241 C 229.453 204.969 236.984 220.429 243.181 236.689 C 245.248 242.286 246.78 247.95 247.647 253.749 C 249.312 264.812 249.179 275.74 247.38 286.602 C 244.048 306.928 232.452 321.389 212.66 329.918 C 206.596 332.517 200.265 334.584 193.668 336.049 C 186.271 337.716 178.94 338.914 171.543 339.781 C 169.944 344.845 167.545 349.244 164.347 352.909 C 166.145 352.776 168.012 352.642 169.811 352.442 C 171.609 352.242 173.343 351.977 175.143 351.644 C 180.473 350.577 185.804 349.71 191.136 349.11 C 207.663 347.178 222.189 340.848 234.785 329.985 C 254.177 313.258 263.04 291.733 261.44 265.477 C 261.307 262.612 260.975 259.746 260.375 256.881 C 256.776 238.822 251.112 221.296 243.381 204.169 C 240.049 196.772 235.984 189.974 231.12 183.71 C 218.524 167.05 201.731 158.186 180.607 157.188 C 163.48 156.321 146.287 155.921 129.16 155.854 C 122.296 158.253 115.699 161.52 109.435 165.584 C 88.643 179.178 73.516 197.638 64.12 220.896 C 57.256 237.956 55.19 255.348 57.989 273.074 C 58.988 279.138 59.988 285.202 61.121 291.266 C 62.72 299.93 65.853 307.86 70.584 314.99 C 73.316 312.125 76.515 308.993 80.18 305.461 C 75.448 296.398 72.383 286.736 70.85 276.406 C 70.184 271.808 69.85 267.144 69.917 262.412 C 70.184 247.152 73.516 232.357 79.914 218.096 C 90.376 194.705 107.236 178.178 130.56 168.517 C 146.753 168.45 163.013 168.649 179.273 169.049 C 194.468 169.449 207.129 175.113 217.325 186.109" fill="rgb(0,0,0)"/><path d=" M 181.939 310.86 C 179.073 298.664 170.677 292.533 156.616 292.4 C 140.689 292.266 124.695 292.2 108.769 292.133 C 98.04 293.466 87.71 296.598 77.914 301.529 C 77.048 301.996 76.448 302.462 75.982 302.996 C 76.315 302.862 76.648 302.796 77.048 302.729 C 77.381 302.662 77.647 302.662 77.914 302.596 C 81.979 304.662 84.311 307.793 84.911 312.058 C 85.245 314.125 85.111 316.457 84.645 319.056 C 84.311 320.989 84.111 322.988 84.111 324.986 C 95.973 322.121 108.102 319.256 120.563 316.257 C 121.697 315.99 122.63 316.457 123.296 317.59 C 125.562 321.522 124.762 324.853 120.83 327.586 C 119.231 330.852 117.498 333.984 115.632 337.049 C 115.365 337.516 115.099 337.914 114.833 338.314 C 131.826 340.248 148.952 340.648 166.212 339.581 C 168.412 339.448 170.611 339.248 172.809 339.048 C 174.876 338.848 176.941 338.581 179.007 338.248 C 181.607 337.848 183.605 337.981 184.939 338.648 C 185.072 329.118 184.072 319.856 181.939 310.86 Z " fill="rgb(248,201,103)"/><path d=" M 179.007 338.248 C 176.941 338.581 174.876 338.848 172.809 339.048 C 170.611 339.248 168.412 339.448 166.212 339.581 C 148.952 340.648 131.826 340.248 114.833 338.314 C 115.099 337.914 115.365 337.516 115.632 337.049 C 117.498 333.984 119.231 330.852 120.83 327.586 C 124.762 324.853 125.562 321.522 123.296 317.59 C 122.63 316.457 121.697 315.99 120.563 316.257 C 108.102 319.256 95.973 322.122 84.111 324.986 C 84.111 322.988 84.311 320.989 84.645 319.056 C 85.111 316.457 85.245 314.125 84.911 312.058 C 84.311 307.794 81.979 304.662 77.914 302.596 C 77.647 302.662 77.381 302.662 77.048 302.729 C 76.648 302.796 76.315 302.862 75.982 302.996 C 74.982 303.396 74.382 304.129 74.116 305.196 C 71.917 313.658 71.183 322.521 71.983 331.784 C 72.317 335.716 74.516 337.582 78.581 337.516 C 87.577 337.316 95.641 336.249 102.904 334.317 C 102.171 335.716 101.238 336.916 99.972 337.981 C 98.706 339.114 97.84 340.448 97.506 341.98 C 95.707 349.11 98.906 352.109 107.103 350.977 C 116.965 349.577 126.761 349.91 136.557 351.91 C 145.221 353.642 153.951 354.176 162.68 353.509 C 167.745 353.109 172.809 352.642 177.807 352.044 C 182.005 351.577 184.739 349.51 186.004 345.778 C 187.337 342.046 187.004 339.648 184.939 338.648 C 183.605 337.981 181.607 337.848 179.007 338.248" fill="rgb(0,0,0)"/><path d=" M 103.504 234.824 C 81.979 235.822 68.651 236.756 63.453 237.489 C 58.188 238.222 46.393 241.953 28.134 248.617 C 9.808 255.281 4.144 267.144 11.208 284.137 C 18.271 301.13 32.532 306.794 53.991 301.264 C 78.647 298.665 99.572 288.534 116.832 270.742 L 103.504 234.824" fill="rgb(235,126,103)"/><path d=" M 63.453 237.489 C 68.651 236.756 81.979 235.822 103.504 234.824 C 81.712 227.293 60.455 226.56 39.73 232.757 C 19.005 238.954 6.209 251.084 1.345 269.142 C -3.52 287.202 4.81 300.73 26.402 309.793 C 47.926 318.856 69.85 317.924 92.175 307.061 C 107.303 299.664 115.565 287.536 116.832 270.742 C 99.572 288.534 78.647 298.665 53.991 301.264 C 32.532 306.794 18.271 301.13 11.208 284.137 C 4.144 267.144 9.808 255.281 28.134 248.617 C 46.393 241.953 58.188 238.222 63.453 237.489" fill="rgb(0,0,0)"/><path d=" M 96.173 205.968 C 89.976 207.633 87.644 211.233 89.176 216.897 C 88.843 221.629 90.709 225.293 94.707 228.026 C 99.639 231.357 103.171 230.292 105.37 224.893 C 109.035 215.764 106.236 209.433 97.04 205.768 C 96.707 205.834 96.44 205.901 96.173 205.968" fill="rgb(0,0,0)"/><path d=" M 158.083 195.305 C 156.949 190.574 153.684 188.108 148.285 187.842 C 147.02 187.909 145.887 188.441 144.821 189.374 C 141.356 192.506 141.289 195.772 144.555 199.304 C 145.155 206.768 148.619 211.965 154.951 214.965 C 156.216 215.564 157.349 215.43 158.283 214.432 C 163.68 208.766 163.613 202.569 158.149 195.772 C 158.149 195.572 158.149 195.438 158.083 195.305 Z " fill="rgb(0,0,0)"/><path d=" M 89.31 44.233 L 87.31 61.293 L 100.905 129.732 C 98.439 130.332 95.973 130.932 93.508 131.532 C 91.042 132.197 88.643 132.93 86.244 133.73 C 74.582 137.396 69.718 145.258 71.717 157.254 C 73.183 158.054 74.649 158.786 76.182 159.52 C 77.581 160.253 79.047 160.853 80.58 161.453 C 89.643 164.984 98.972 166.184 108.635 164.917 C 109.301 165.384 110.035 165.85 110.768 166.25 C 111.434 166.65 112.167 166.984 112.9 167.317 C 135.224 168.184 157.616 169.782 179.94 172.114 C 194.401 173.781 206.863 169.782 217.192 160.12 C 227.521 150.324 227.055 141.526 215.792 133.73 C 207.129 127.8 197.533 125.266 187.071 126.2 C 186.737 125.133 186.404 124.068 186.071 123.068 C 185.539 121.402 185.072 119.736 184.739 118.069 C 182.005 106.074 184.205 95.078 191.203 85.017 C 193.535 84.817 195.8 84.55 198.133 84.35 C 200.399 84.017 202.664 83.55 204.864 82.95 C 229.853 76.62 236.784 62.225 225.588 39.768 C 214.527 17.577 196.667 4.714 171.943 1.117 C 141.356 -3.215 116.499 5.048 97.306 25.973 C 92.642 31.105 89.976 37.169 89.31 44.233 L 89.31 44.233 Z  M 101.038 43.1 L 101.638 40.368 C 113.7 19.909 133.492 10.246 161.015 11.245 C 187.337 12.512 206.263 24.841 217.725 48.232 C 219.791 52.429 221.124 56.828 221.724 61.426 C 211.328 67.557 200.532 73.154 189.403 78.22 C 179.407 82.75 173.476 90.614 171.543 101.877 C 166.679 131.132 177.94 143.66 205.396 139.461 L 213.793 146.658 C 204.264 160.72 180.673 165.517 143.155 160.92 C 105.636 156.321 85.644 152.522 83.045 149.524 C 80.446 141.326 92.508 136.729 119.297 135.796 L 113.433 127.866 L 101.038 43.1" fill="rgb(0,0,0)"/><path d=" M 101.638 40.368 L 101.038 43.1 L 113.433 127.866 L 119.297 135.796 C 92.508 136.729 80.446 141.326 83.045 149.524 C 85.644 152.522 105.636 156.321 143.155 160.92 C 180.673 165.517 204.264 160.72 213.793 146.658 L 205.396 139.461 C 177.94 143.66 166.679 131.132 171.543 101.877 C 173.476 90.614 179.407 82.75 189.403 78.22 C 200.532 73.154 211.328 67.557 221.724 61.426 C 221.124 56.828 219.791 52.429 217.725 48.232 C 206.263 24.841 187.337 12.512 161.015 11.245 C 133.492 10.246 113.7 19.909 101.638 40.368" fill="rgb(115,115,115)"/><path d=" M 257.509 202.036 C 253.844 202.769 250.112 203.436 246.247 204.169 C 243.315 204.702 240.716 206.034 238.517 208.1 C 233.119 213.098 227.788 218.162 222.589 223.228 C 220.657 225.093 219.657 226.96 219.457 228.825 C 219.191 230.892 219.991 233.024 221.857 235.156 C 223.523 237.089 225.388 237.289 227.388 235.756 C 229.653 234.024 231.852 232.224 234.052 230.358 C 236.851 227.893 239.583 225.36 242.248 222.694 C 252.311 212.632 263.907 211.698 277.035 219.896 C 279.5 221.496 281.7 223.361 283.565 225.56 C 290.163 233.224 294.161 242.02 295.56 252.016 C 297.093 263.145 292.961 271.009 283.232 275.606 C 271.037 281.405 259.375 280.672 248.245 273.541 C 246.313 272.274 244.515 271.541 242.848 271.342 C 239.583 270.809 236.784 272.141 234.519 275.406 C 233.852 276.34 233.652 277.206 233.852 278.072 C 234.052 278.672 234.452 279.205 235.052 279.738 C 237.651 281.87 240.316 283.737 242.981 285.336 C 256.376 293.133 270.971 294 286.631 287.802 C 291.629 285.869 296.027 282.87 299.759 278.872 C 305.756 272.474 308.488 264.812 308.021 255.814 C 307.423 244.553 304.091 234.157 298.16 224.56 C 288.896 209.633 275.369 202.102 257.509 202.036" fill="rgb(0,0,0)"/><path d=" M 234.052 230.358 C 231.852 232.224 229.653 234.024 227.388 235.756 C 225.388 237.289 223.523 237.089 221.857 235.156 C 219.991 233.024 219.191 230.892 219.457 228.825 C 218.324 230.092 219.857 241.953 224.123 264.278 C 224.589 266.944 225.055 269.276 225.388 271.342 C 227.988 273.408 230.787 275.606 233.852 278.072 C 233.652 277.206 233.852 276.34 234.519 275.406 C 236.784 272.141 239.583 270.809 242.848 271.342 C 244.515 271.541 246.313 272.274 248.245 273.541 C 259.375 280.672 271.037 281.405 283.232 275.606 C 292.961 271.009 297.093 263.145 295.56 252.016 C 294.161 242.02 290.163 233.224 283.565 225.56 C 281.7 223.361 279.5 221.496 277.035 219.896 C 263.907 211.698 252.311 212.632 242.248 222.694 C 239.583 225.36 236.851 227.893 234.052 230.358 Z " fill="rgb(248,201,103)"/><path d=" M 271.104 235.489 C 271.969 235.022 272.703 234.424 273.436 233.69 C 274.636 232.424 274.369 231.557 272.636 231.09 C 268.572 232.824 265.105 235.422 262.373 238.954 C 262.04 239.354 261.773 239.821 261.507 240.288 C 260.508 238.756 259.508 237.156 258.508 235.622 C 258.309 235.422 258.176 235.222 258.109 235.022 C 257.043 233.224 255.643 231.824 253.977 230.958 C 252.177 231.557 251.912 232.624 253.111 234.157 C 254.044 235.356 254.976 236.556 255.843 237.756 C 257.243 239.688 258.575 241.62 259.908 243.62 C 257.709 248.017 255.376 252.282 252.777 256.481 C 252.377 257.081 251.979 257.681 251.512 258.281 C 250.512 259.413 250.645 260.346 251.845 261.145 C 252.377 261.478 252.777 261.478 253.111 261.012 C 255.509 257.814 257.643 254.481 259.575 250.95 C 259.908 250.35 260.175 249.684 260.375 249.084 C 260.708 248.084 261.041 247.085 261.507 246.085 C 262.24 247.152 262.907 248.217 263.64 249.35 C 266.839 254.349 269.637 259.48 272.103 264.877 C 272.836 266.477 273.969 266.81 275.369 265.944 C 275.568 265.744 275.635 265.61 275.568 265.41 C 273.636 260.28 271.104 255.348 268.105 250.617 C 266.439 248.084 264.84 245.552 263.24 243.02 C 265.172 239.954 267.839 237.422 271.104 235.489" fill="rgb(0,0,0)"/><path d=" M 198.799 332.784 C 195.933 335.649 193.335 338.848 191.069 342.513 C 190.203 343.913 189.669 345.445 189.336 347.178 C 187.271 359.64 185.804 372.235 184.805 385.096 C 184.405 390.628 186.871 393.493 192.135 393.826 C 192.601 393.893 193.068 393.893 193.535 393.893 C 192.003 406.488 191.403 419.283 191.669 432.278 C 191.736 434.01 192.401 435.276 193.668 436.076 C 211.793 447.338 228.321 445.539 243.181 430.545 C 246.047 427.679 248.179 424.347 249.512 420.616 C 254.044 408.22 250.312 400.69 238.384 398.024 C 238.451 396.225 238.384 394.426 238.051 392.693 C 237.851 391.427 237.384 390.494 236.651 389.828 C 237.251 388.628 237.651 387.362 237.851 385.962 C 239.516 375.367 240.449 364.572 240.716 353.509 C 241.116 335.716 232.519 325.72 214.86 323.388 C 208.796 325.053 203.464 328.186 198.799 332.784 L 198.799 332.784 Z  M 216.059 336.582 L 222.856 339.381 C 227.721 352.642 228.321 366.57 224.523 381.231 L 198.865 381.564 L 201.531 351.444 L 216.059 336.582 Z  M 236.717 413.752 C 237.984 416.484 235.584 420.349 229.587 425.347 C 222.389 431.278 214.193 432.211 205.064 428.212 L 206.329 396.625 L 223.856 394.893 L 227.655 414.485 L 236.717 413.752" fill="rgb(0,0,0)"/><path d=" M 222.856 339.381 L 216.059 336.582 L 201.531 351.444 L 198.865 381.564 L 224.523 381.231 C 228.321 366.57 227.721 352.642 222.856 339.381 Z " fill="rgb(82,71,115)"/><path d=" M 229.587 425.347 C 235.584 420.349 237.984 416.484 236.717 413.752 L 227.655 414.485 L 223.856 394.893 L 206.329 396.625 L 205.064 428.212 C 214.193 432.211 222.389 431.278 229.587 425.347 Z " fill="rgb(248,201,103)"/><path d=" M 153.551 476.26 C 154.551 465.331 149.485 460.133 138.357 460.599 C 126.228 462.399 114.166 464.998 102.171 468.263 C 90.376 471.529 83.645 478.659 81.979 489.655 C 81.646 491.72 82.446 493.12 84.311 493.853 C 94.641 497.518 105.37 498.118 116.632 495.585 C 123.362 494.053 130.093 492.92 136.891 492.187 C 147.087 491.054 152.684 485.79 153.551 476.26 Z " fill="rgb(0,0,0)"/><path d=" M 208.396 482.124 C 209.395 471.195 204.331 465.997 193.201 466.464 C 181.073 468.263 169.011 470.862 157.016 474.128 C 145.221 477.393 138.491 484.523 136.824 495.519 C 136.491 497.585 137.291 498.984 139.156 499.717 C 149.485 503.382 160.215 503.982 171.476 501.45 C 178.207 499.917 184.939 498.784 191.736 498.051 C 201.931 496.918 207.529 491.654 208.396 482.124" fill="rgb(0,0,0)"/></g></svg>
